<?xml version="1.0" encoding="utf-8"?>
<!-- Generator: Adobe Illustrator 15.1.0, SVG Export Plug-In . SVG Version: 6.00 Build 0)  -->
<!DOCTYPE svg PUBLIC "-//W3C//DTD SVG 1.1//EN" "http://www.w3.org/Graphics/SVG/1.1/DTD/svg11.dtd">
<svg version="1.1" id="flat_business" xmlns="http://www.w3.org/2000/svg" xmlns:xlink="http://www.w3.org/1999/xlink" x="0px"
	 y="0px" width="212.5px" height="181px" viewBox="0 0 212.5 181" enable-background="new 0 0 212.5 181" xml:space="preserve">
<polygon opacity="0.7" fill="#030A12" points="106.85,70.962 112.159,66.02 83.166,39.465 72.771,39.465 62.373,39.465 
	33.379,66.02 38.691,70.962 32.842,77.381 54.624,128.362 72.771,128.362 90.916,128.362 112.697,77.381 "/>
<linearGradient id="SVGID_1_" gradientUnits="userSpaceOnUse" x1="35.249" y1="79.9189" x2="110.291" y2="79.9189">
	<stop  offset="0.497" style="stop-color:#0D2542"/>
	<stop  offset="0.497" style="stop-color:#0C233F"/>
	<stop  offset="0.4974" style="stop-color:#091A2E"/>
	<stop  offset="0.4978" style="stop-color:#071423"/>
	<stop  offset="0.4984" style="stop-color:#05101C"/>
	<stop  offset="0.5" style="stop-color:#050F1A"/>
</linearGradient>
<polygon fill="url(#SVGID_1_)" points="104.798,64.936 109.786,60.291 82.539,35.336 72.771,35.336 63.002,35.336 35.755,60.291 
	40.746,64.936 35.249,70.971 55.719,124.502 72.771,124.502 89.822,124.502 110.291,70.971 "/>
<g>
	<defs>
		<path id="SVGID_2_" d="M90.089,50.468c0,9.073-15.282,53.022-16.885,54.44c-0.088,0.074-0.434,0.114-0.434,0.114
			s-0.343-0.034-0.423-0.104c-1.536-1.356-16.895-45.355-16.895-54.45c0-9.562,7.752-17.315,17.317-17.315
			S90.089,40.905,90.089,50.468z"/>
	</defs>
	<use xlink:href="#SVGID_2_"  overflow="visible" fill="#F0EAA8"/>
	<clipPath id="SVGID_3_">
		<use xlink:href="#SVGID_2_"  overflow="visible"/>
	</clipPath>
	<polygon clip-path="url(#SVGID_3_)" fill="#BC2732" points="75.955,70.971 77.971,115.871 67.77,115.871 69.586,70.971 	"/>
</g>
<polygon fill="#BC2732" points="58.967,56.816 69.586,70.971 75.955,70.971 86.862,56.816 "/>
<path fill="#9E9A6F" d="M72.771,35.816c-9.032,0-16.354,7.322-16.354,16.354c0,5.152,5.329,11.494,9.902,16.417
	c3.438-3.7,6.451-5.819,6.451-5.819s3.013,2.119,6.451,5.819c4.574-4.923,9.9-11.265,9.9-16.417
	C89.122,43.139,81.803,35.816,72.771,35.816z"/>
<g>
	<defs>
		<polygon id="SVGID_4_" points="58.967,56.816 69.586,70.971 75.955,70.971 86.862,56.816 		"/>
	</defs>
	<clipPath id="SVGID_5_">
		<use xlink:href="#SVGID_4_"  overflow="visible"/>
	</clipPath>
	<path clip-path="url(#SVGID_5_)" fill="#521116" d="M72.771,35.317c-9.032,0-16.354,7.32-16.354,16.353
		c0,5.156,5.329,11.995,9.902,16.918c3.438-3.7,6.451-5.819,6.451-5.819s3.013,2.119,6.451,5.819c4.574-4.923,9.9-11.762,9.9-16.918
		C89.122,42.638,81.803,35.317,72.771,35.317z"/>
</g>
<g>
	<defs>
		<path id="SVGID_6_" d="M90.089,50.468c0,9.073-15.282,53.022-16.885,54.44c-0.088,0.074-0.434,0.114-0.434,0.114
			s-0.343-0.034-0.423-0.104c-1.536-1.356-16.895-45.355-16.895-54.45c0-9.562,7.752-17.315,17.317-17.315
			S90.089,40.905,90.089,50.468z"/>
	</defs>
	<clipPath id="SVGID_7_">
		<use xlink:href="#SVGID_6_"  overflow="visible"/>
	</clipPath>
	<g clip-path="url(#SVGID_7_)">
		<defs>
			<polygon id="SVGID_8_" points="86.862,56.816 58.967,56.816 69.586,70.971 67.77,115.871 77.971,115.871 75.955,70.971 			"/>
		</defs>
		<clipPath id="SVGID_9_">
			<use xlink:href="#SVGID_8_"  overflow="visible"/>
		</clipPath>
		<g clip-path="url(#SVGID_9_)">
			
				<rect x="72.23" y="13.698" transform="matrix(0.7065 0.7078 -0.7078 0.7065 65.0064 -33.5746)" fill="#F0E890" width="1.497" height="95.765"/>
		</g>
		<g clip-path="url(#SVGID_9_)">
			
				<rect x="58.801" y="56.663" transform="matrix(0.7074 0.7068 -0.7068 0.7074 74.9135 -18.2897)" fill="#F0E890" width="1.496" height="49.36"/>
		</g>
		<g clip-path="url(#SVGID_9_)">
			
				<rect x="78.183" y="20.412" transform="matrix(0.7065 0.7078 -0.7078 0.7065 71.5045 -35.8172)" fill="#F0E890" width="1.497" height="95.762"/>
		</g>
		<g clip-path="url(#SVGID_9_)">
			
				<rect x="81.161" y="23.767" transform="matrix(0.7081 0.7061 -0.7061 0.7081 74.5042 -36.9236)" fill="#F0E890" width="1.498" height="95.765"/>
		</g>
		<g clip-path="url(#SVGID_9_)">
			
				<rect x="84.137" y="27.124" transform="matrix(0.7061 0.7081 -0.7081 0.7061 78.0558 -38.0646)" fill="#F0E890" width="1.498" height="95.763"/>
		</g>
		<g clip-path="url(#SVGID_9_)">
			
				<rect x="87.116" y="30.479" transform="matrix(0.7071 0.7071 -0.7071 0.7071 81.1455 -39.178)" fill="#F0E890" width="1.498" height="95.767"/>
		</g>
		<g clip-path="url(#SVGID_9_)">
			
				<rect x="90.091" y="33.835" transform="matrix(0.7078 0.7065 -0.7065 0.7078 84.2758 -40.293)" fill="#F0E890" width="1.497" height="95.763"/>
		</g>
		<g clip-path="url(#SVGID_9_)">
			
				<rect x="93.07" y="37.192" transform="matrix(0.7074 0.7068 -0.7068 0.7074 87.5764 -41.4189)" fill="#F0E890" width="1.496" height="95.764"/>
		</g>
	</g>
</g>
<path fill="#F0EAA8" d="M72.771,61.271c0,0,3.013,2.12,6.451,5.82c4.574-4.923,9.9-11.763,9.9-16.919
	c0-9.029-7.319-16.353-16.352-16.353s-16.354,7.323-16.354,16.353c0,5.156,5.329,11.996,9.902,16.919
	C69.758,63.391,72.771,61.271,72.771,61.271z"/>
<path fill="#071526" d="M84,44.761c0,5.886-9.586,14.966-10.623,15.884c-0.058,0.051-0.606,0.076-0.606,0.076
	s-0.546-0.024-0.598-0.069c-0.996-0.88-10.633-9.99-10.633-15.891c0-6.199,5.026-11.228,11.23-11.228
	C78.972,33.533,84,38.562,84,44.761z"/>
<rect x="69.586" y="70.221" fill="#8A1C25" width="6.369" height="1.496"/>
<g>
	<path fill="#636363" d="M148.433,108.42l1.604-1.605c0.298-0.3,0.298-0.782,0-1.082l-2.301-2.301c-0.302-0.296-0.787-0.296-1.085,0
		l-1.6,1.605C146.407,105.902,147.566,107.059,148.433,108.42z"/>
	<path fill="#636363" d="M129.866,108.42c0.867-1.361,2.022-2.518,3.381-3.383l-1.603-1.605c-0.302-0.296-0.784-0.296-1.082,0
		l-2.3,2.301c-0.297,0.3-0.297,0.782,0,1.082L129.866,108.42z"/>
	<path fill="#636363" d="M139.149,103.322c0.82,0,1.617,0.092,2.387,0.258v-2.265c0-0.422-0.342-0.765-0.763-0.765h-3.251
		c-0.421,0-0.767,0.343-0.767,0.765v2.265C137.526,103.414,138.326,103.322,139.149,103.322z"/>
	<path fill="#636363" d="M128.152,114.318c0-0.82,0.087-1.62,0.261-2.39h-2.27c-0.422,0-0.763,0.343-0.763,0.764v3.25
		c0,0.428,0.341,0.77,0.763,0.77h2.27C128.239,115.942,128.152,115.142,128.152,114.318z"/>
	<path fill="#636363" d="M129.866,120.223l-1.604,1.601c-0.297,0.299-0.297,0.786,0,1.082l2.3,2.3c0.298,0.294,0.78,0.294,1.082,0
		l1.603-1.607C131.889,122.734,130.733,121.58,129.866,120.223z"/>
	<path fill="#636363" d="M148.433,120.223c-0.866,1.357-2.025,2.512-3.381,3.375l1.6,1.607c0.298,0.294,0.783,0.294,1.085,0
		l2.301-2.3c0.293-0.296,0.298-0.783,0-1.082L148.433,120.223z"/>
	<path fill="#636363" d="M152.152,111.929h-2.267c0.171,0.77,0.262,1.569,0.262,2.39c0,0.823-0.091,1.624-0.262,2.394h2.267
		c0.424,0,0.766-0.342,0.766-0.77v-3.25C152.918,112.271,152.576,111.929,152.152,111.929z"/>
	<path fill="#636363" d="M139.149,125.315c-0.823,0-1.623-0.088-2.394-0.258v2.267c0,0.418,0.346,0.76,0.767,0.76h3.251
		c0.421,0,0.763-0.342,0.763-0.76v-2.267C140.767,125.228,139.97,125.315,139.149,125.315z"/>
</g>
<circle fill="none" stroke="#636363" stroke-width="0.7907" stroke-miterlimit="10" cx="139.149" cy="114.318" r="9.742"/>
<circle fill="none" stroke="#636363" stroke-width="0.3168" stroke-miterlimit="10" cx="139.15" cy="114.318" r="6.913"/>
<g>
	<path fill="#BC2732" d="M162.162,93.421l1-1.002c0.186-0.186,0.186-0.489,0-0.676l-1.437-1.436c-0.188-0.188-0.491-0.188-0.675,0
		l-1.005,0.998C160.899,91.847,161.619,92.572,162.162,93.421z"/>
	<path fill="#BC2732" d="M150.56,93.421c0.542-0.849,1.261-1.574,2.111-2.115l-1.001-0.998c-0.188-0.188-0.491-0.188-0.676,0
		l-1.439,1.436c-0.188,0.187-0.188,0.49,0,0.676L150.56,93.421z"/>
	<path fill="#BC2732" d="M156.36,90.237c0.512,0,1.014,0.054,1.492,0.162v-1.418c0-0.267-0.214-0.478-0.476-0.478h-2.034
		c-0.265,0-0.479,0.211-0.479,0.478v1.418C155.345,90.291,155.845,90.237,156.36,90.237z"/>
	<path fill="#BC2732" d="M149.484,97.108c0-0.512,0.06-1.013,0.167-1.494h-1.419c-0.265,0-0.479,0.214-0.479,0.479v2.03
		c0,0.267,0.214,0.481,0.479,0.481h1.419C149.544,98.122,149.484,97.621,149.484,97.108z"/>
	<path fill="#BC2732" d="M150.56,100.799l-1.005,1.001c-0.188,0.186-0.188,0.489,0,0.677l1.439,1.438
		c0.185,0.187,0.488,0.187,0.676,0l1.001-1.006C151.82,102.37,151.102,101.646,150.56,100.799z"/>
	<path fill="#BC2732" d="M162.162,100.799c-0.543,0.848-1.263,1.571-2.116,2.11l1.005,1.006c0.184,0.187,0.487,0.187,0.675,0
		l1.437-1.438c0.186-0.188,0.186-0.491,0-0.677L162.162,100.799z"/>
	<path fill="#BC2732" d="M164.489,95.614h-1.417c0.104,0.481,0.16,0.982,0.16,1.494c0,0.513-0.057,1.014-0.16,1.496h1.417
		c0.26,0,0.474-0.215,0.474-0.481v-2.03C164.963,95.828,164.749,95.614,164.489,95.614z"/>
	<path fill="#BC2732" d="M156.36,103.986c-0.516,0-1.016-0.059-1.496-0.167v1.414c0,0.265,0.214,0.481,0.479,0.481h2.034
		c0.262,0,0.476-0.217,0.476-0.481v-1.414C157.374,103.928,156.872,103.986,156.36,103.986z"/>
</g>
<path fill="none" stroke="#BC2732" stroke-width="0.4942" stroke-miterlimit="10" d="M162.446,97.108
	c0,3.358-2.725,6.091-6.086,6.091c-3.365,0-6.087-2.732-6.087-6.091c0-3.361,2.722-6.089,6.087-6.089
	C159.722,91.02,162.446,93.747,162.446,97.108z"/>
<path fill="none" stroke="#BC2732" stroke-width="0.198" stroke-miterlimit="10" d="M160.679,97.108
	c0,2.388-1.932,4.323-4.318,4.323s-4.322-1.936-4.322-4.323c0-2.385,1.936-4.317,4.322-4.317S160.679,94.724,160.679,97.108z"/>
<g>
	<path fill="#016F88" d="M163.065,122.038l0.8-0.8c0.15-0.147,0.15-0.393,0-0.54l-1.148-1.15c-0.149-0.151-0.388-0.151-0.538,0
		l-0.8,0.803C162.054,120.782,162.634,121.357,163.065,122.038z"/>
	<path fill="#016F88" d="M153.782,122.038c0.432-0.681,1.011-1.256,1.69-1.688l-0.8-0.803c-0.15-0.151-0.391-0.151-0.539,0
		l-1.151,1.15c-0.148,0.147-0.148,0.393,0,0.54L153.782,122.038z"/>
	<path fill="#016F88" d="M158.422,119.493c0.412,0,0.813,0.044,1.196,0.128v-1.136c0-0.211-0.168-0.377-0.379-0.377h-1.627
		c-0.211,0-0.382,0.166-0.382,0.377v1.136C157.615,119.537,158.018,119.493,158.422,119.493z"/>
	<path fill="#016F88" d="M152.922,124.99c0-0.408,0.047-0.81,0.135-1.195h-1.135c-0.212,0-0.382,0.172-0.382,0.386v1.62
		c0,0.214,0.17,0.382,0.382,0.382h1.135C152.969,125.801,152.922,125.399,152.922,124.99z"/>
	<path fill="#016F88" d="M153.782,127.939l-0.8,0.804c-0.148,0.15-0.148,0.393,0,0.538l1.151,1.148c0.148,0.151,0.389,0.151,0.539,0
		l0.8-0.796C154.793,129.195,154.214,128.622,153.782,127.939z"/>
	<path fill="#016F88" d="M163.065,127.939c-0.432,0.683-1.012,1.256-1.687,1.694l0.8,0.796c0.15,0.151,0.389,0.151,0.538,0
		l1.148-1.148c0.15-0.146,0.15-0.388,0-0.538L163.065,127.939z"/>
	<path fill="#016F88" d="M164.93,123.795h-1.138c0.084,0.386,0.131,0.787,0.131,1.195c0,0.409-0.047,0.811-0.131,1.192h1.138
		c0.208,0,0.379-0.168,0.379-0.382v-1.62C165.309,123.967,165.138,123.795,164.93,123.795z"/>
	<path fill="#016F88" d="M158.422,130.494c-0.404,0-0.807-0.054-1.191-0.134v1.132c0,0.214,0.171,0.381,0.382,0.381h1.627
		c0.211,0,0.379-0.167,0.379-0.381v-1.132C159.235,130.44,158.834,130.494,158.422,130.494z"/>
</g>
<circle fill="none" stroke="#016F88" stroke-width="0.3953" stroke-miterlimit="10" cx="158.422" cy="124.99" r="4.871"/>
<path fill="none" stroke="#016F88" stroke-width="0.1584" stroke-miterlimit="10" d="M161.88,124.99
	c0,1.905-1.546,3.455-3.458,3.455c-1.904,0-3.454-1.55-3.454-3.455c0-1.907,1.55-3.458,3.454-3.458
	C160.334,121.532,161.88,123.083,161.88,124.99z"/>
<text transform="matrix(1 0 0 1 6.1406 157.4307)"><tspan x="0" y="0" fill="#212F5B" font-family="'Montserrat-Regular'" font-size="19.3083">business  </tspan><tspan x="95.034" y="0" fill="#FFFFFF" font-family="'Montserrat-Regular'" font-size="19.3083">strategy</tspan></text>
<linearGradient id="triangle-light_1_" gradientUnits="userSpaceOnUse" x1="149.6133" y1="174" x2="149.6133" y2="47.001">
	<stop  offset="0" style="stop-color:#AB9E18"/>
	<stop  offset="0.3981" style="stop-color:#E4D423"/>
	<stop  offset="0.6242" style="stop-color:#FFEE28"/>
</linearGradient>
<path id="triangle-light" opacity="0.15" fill="url(#triangle-light_1_)" d="M203.017,174H96.43c-5.512,0-8.444-3.578-6.549-7.995
	l51.047-119.004h11.408l56.897,119.115C211.312,170.471,208.53,174,203.017,174z"/>
<path fill="#FFB700" d="M136.636,63.8c0,0.005,0,0.011,0,0.013c0,0.017,0,0.027,0,0.04s0,0.022,0,0.035c0,0.006,0,0.013,0,0.02
	c0,0.097,0.003,0.207,0.007,0.312c0,0.037,0.003,0.071,0.01,0.104c0,0.043,0.004,0.087,0.006,0.132
	c0.021,0.235,0.047,0.51,0.075,0.726c0,0.005,0,0.011,0.002,0.015c0.005,0.042,0.018,0.134,0.044,0.28c0,0.001,0,0.003,0,0.005
	c0,0.018,0.007,0.039,0.01,0.059c0.004,0.01,0.004,0.021,0.007,0.032c0,0.007,0,0.014,0.004,0.021
	c0.044,0.252,0.097,0.469,0.097,0.473c0.058,0.256,0.154,0.592,0.231,0.843c0.026,0.085,0.06,0.183,0.097,0.279
	c0.026,0.084,0.058,0.165,0.084,0.239c0.007,0.016,0.016,0.032,0.02,0.049c0.014,0.032,0.027,0.065,0.038,0.096
	c0.109,0.279,0.267,0.619,0.425,0.924c0.033,0.066,0.069,0.13,0.1,0.19c0.014,0.019,0.024,0.041,0.033,0.061
	c0.014,0.022,0.026,0.051,0.044,0.073c0.178,0.316,0.438,0.718,0.666,1.027c0.141,0.199,0.342,0.444,0.5,0.619
	c0.072,0.084,0.156,0.173,0.243,0.265c0.107,0.12,0.229,0.24,0.341,0.355c0.011,0.009,0.021,0.019,0.031,0.028
	c0.265,0.274,0.665,0.597,0.972,0.828c0.277,0.21,0.659,0.471,0.959,0.639c0.008,0.005,0.015,0.008,0.018,0.01
	c0.007,0.003,0.013,0.009,0.02,0.01c0.11,0.069,0.258,0.148,0.389,0.214c0.01,0.007,0.023,0.015,0.034,0.022
	c0.01,0.002,0.014,0.006,0.022,0.01c0.004,0,0.007,0.002,0.011,0.005h0.003c0.011,0.006,0.02,0.014,0.03,0.018
	c0.007,0.003,0.018,0.007,0.02,0.012c0.186,0.092,0.412,0.203,0.596,0.275c0.021,0.012,0.048,0.022,0.074,0.031
	c0.204,0.086,0.412,0.165,0.622,0.238c0.048,0.018,0.095,0.032,0.139,0.049c0.133,0.043,0.265,0.086,0.384,0.117
	c0.004,0,0.007,0.002,0.011,0.003c0.113,0.034,0.214,0.062,0.294,0.081c0.011,0.001,0.017,0.003,0.023,0.005
	c0.011,0.003,0.018,0.005,0.027,0.007c0.067,0.018,0.171,0.041,0.274,0.065c0.007,0,0.01,0.001,0.01,0.001
	c0.013,0.002,0.02,0.006,0.027,0.007c0.106,0.024,0.214,0.045,0.285,0.058l0,0c0.2,0.038,0.384,0.066,0.549,0.086
	c0.097,0.012,0.207,0.025,0.293,0.033c0,0,0.004,0,0.007,0.003c0.051,0.003,0.095,0.008,0.135,0.012
	c0.134,0.01,0.16,0.011,0.288,0.02l0,0c0,0,0.051,0.003,0.13,0.009h0.004c0.017,0,0.033,0,0.05,0
	c0.074,0.005,0.132,0.005,0.174,0.006l0,0c0.018,0,0.03,0,0.044,0c0.101,0.005,0.128,0.005,0.225,0.002c0.047,0,0.097,0,0.15,0
	c0.007-0.002,0.013-0.002,0.023-0.002c0.121-0.001,0.258-0.006,0.371-0.015c0.018,0,0.03-0.002,0.044-0.002
	c0.074-0.004,0.144-0.01,0.214-0.015l0,0c0.101-0.008,0.205-0.019,0.302-0.031c0.128-0.013,0.2-0.023,0.2-0.023
	c0.011-0.003,0.021-0.004,0.027-0.005c0.104-0.013,0.185-0.025,0.235-0.032c0.104-0.018,0.207-0.036,0.304-0.054l0,0
	c0.047-0.01,0.093-0.019,0.147-0.028c0.113-0.024,0.188-0.042,0.188-0.042c0.014-0.005,0.029-0.007,0.044-0.011
	c0.003,0,0.01-0.001,0.01-0.001c0.153-0.033,0.358-0.085,0.505-0.13c0.011-0.004,0.021-0.007,0.027-0.01
	c0.073-0.021,0.15-0.045,0.241-0.071c0.181-0.055,0.414-0.139,0.593-0.208c0.311-0.111,0.719-0.292,1.014-0.451l0.004-0.002
	l0.003-0.004c0.154-0.073,0.348-0.189,0.498-0.272c0.139-0.078,0.291-0.175,0.445-0.276c0.125-0.082,0.255-0.173,0.365-0.254
	c0.087-0.062,0.171-0.126,0.247-0.185c0.139-0.107,0.315-0.247,0.456-0.369c0.117-0.104,0.231-0.205,0.331-0.304
	c0.047-0.048,0.098-0.1,0.151-0.152c0.11-0.11,0.221-0.22,0.313-0.315c0.121-0.126,0.252-0.278,0.386-0.438
	c0.117-0.138,0.258-0.32,0.365-0.468c0.007-0.011,0.014-0.022,0.023-0.03l0.004-0.007c0.086-0.122,0.314-0.438,0.568-0.873
	c0.058-0.101,0.114-0.199,0.161-0.29c0-0.004,0-0.007,0.003-0.009c0.01-0.011,0.013-0.021,0.02-0.033
	c0.118-0.223,0.218-0.434,0.302-0.62c0-0.002,0.004-0.004,0.004-0.008c0.084-0.182,0.188-0.424,0.254-0.62
	c0.018-0.046,0.026-0.07,0.026-0.07c0.07-0.206,0.161-0.477,0.218-0.685l0,0h0.004v-0.01c0.003-0.009,0.007-0.017,0.01-0.029
	c0.023-0.085,0.06-0.219,0.101-0.381c0-0.006,0.003-0.014,0.003-0.021c0.004-0.01,0.007-0.018,0.011-0.028
	c0.029-0.127,0.057-0.264,0.086-0.405c0-0.012,0-0.022,0.005-0.034c0.039-0.22,0.079-0.494,0.109-0.723v-0.002
	c0.003-0.032,0.01-0.062,0.01-0.093c0-0.001,0-0.006,0-0.006l0.004-0.002c0,0,0-0.004,0-0.007c0-0.021,0.003-0.047,0.003-0.07
	c0.015-0.089,0.017-0.17,0.023-0.246v-0.001c0.004-0.01,0.004-0.018,0.004-0.025c0-0.026,0.003-0.055,0.003-0.078
	c0.011-0.128,0.014-0.3,0.021-0.43c0,0,0-0.001,0-0.007l0,0c0.004-0.129,0.004-0.288,0-0.45c0-0.004,0-0.01,0-0.014
	c0-0.02,0-0.038-0.003-0.057c0-0.021-0.004-0.036-0.004-0.055c0-0.007,0-0.012,0-0.018c0-0.027-0.003-0.055-0.003-0.08V63.3
	c0-0.029,0-0.057-0.004-0.084c0-0.005,0-0.006,0-0.006c0-0.028-0.003-0.05-0.007-0.075c0-0.012,0-0.021,0-0.031
	c0-0.013-0.003-0.027-0.003-0.039c0-0.021,0-0.041-0.004-0.06V63c-0.009-0.121-0.02-0.228-0.026-0.306
	c-0.007-0.038-0.014-0.08-0.018-0.121c-0.009-0.098-0.026-0.205-0.035-0.29l-0.004-0.005c0.004-0.002,0-0.002,0-0.002
	c0-0.012,0-0.023-0.003-0.034c0-0.004,0-0.007,0-0.011c0-0.014-0.007-0.021-0.011-0.034c0-0.007,0-0.015,0-0.02
	c0-0.009,0-0.019-0.003-0.026c-0.004-0.011-0.004-0.019-0.008-0.029c0-0.006,0-0.013-0.003-0.019c0-0.013-0.004-0.026-0.004-0.038
	c-0.002-0.002-0.002-0.003-0.002-0.007c-0.011-0.053-0.021-0.105-0.027-0.154c0-0.003,0-0.008,0-0.011
	c-0.004-0.011-0.006-0.022-0.011-0.03c0-0.004,0-0.004,0-0.004v-0.004c0,0,0-0.004,0-0.006c-0.009-0.046-0.016-0.092-0.029-0.135
	c0-0.006,0-0.011,0-0.014c-0.01-0.04-0.017-0.077-0.027-0.114c0-0.008,0-0.016,0-0.025c-0.01-0.029-0.016-0.059-0.022-0.086
	c-0.004-0.014-0.007-0.027-0.007-0.038c-0.011-0.024-0.014-0.048-0.018-0.07c-0.007-0.013-0.009-0.025-0.009-0.038
	c-0.007-0.022-0.015-0.045-0.018-0.065c-0.004-0.007-0.004-0.018-0.007-0.023c-0.007-0.022-0.011-0.05-0.02-0.069v-0.004
	c-0.014-0.051-0.024-0.091-0.033-0.124c0-0.005,0-0.007,0-0.012c-0.035-0.115-0.077-0.266-0.118-0.383
	c-0.062-0.198-0.117-0.342-0.14-0.405v-0.005v-0.003c-0.048-0.121-0.107-0.276-0.161-0.396v-0.001
	c-0.047-0.114-0.114-0.258-0.161-0.368c-0.004-0.004-0.13-0.29-0.354-0.691c-0.014-0.023-0.026-0.045-0.037-0.064
	c-0.003-0.007-0.01-0.014-0.01-0.021c-0.057-0.095-0.114-0.189-0.174-0.294c-0.007-0.005-0.011-0.012-0.011-0.019
	c-0.002-0.006-0.007-0.013-0.009-0.02c-0.008-0.014-0.011-0.026-0.018-0.04c-0.073-0.159-0.165-0.35-0.271-0.574
	c-0.01-0.023-0.02-0.045-0.033-0.069c-0.013-0.031-0.026-0.061-0.044-0.094c-0.01-0.017-0.017-0.032-0.026-0.051
	c-0.017-0.044-0.044-0.089-0.057-0.126c-0.004-0.003-0.007-0.007-0.007-0.007c0-0.004-0.004-0.01-0.004-0.01
	c-0.069-0.138-0.133-0.271-0.194-0.399c-0.04-0.076-0.08-0.165-0.126-0.269c-0.018-0.028-0.028-0.059-0.044-0.091
	c0-0.001,0-0.005-0.004-0.008c-0.01-0.023-0.022-0.049-0.033-0.074c-0.003-0.008-0.007-0.016-0.014-0.022
	c-0.009-0.026-0.02-0.052-0.033-0.077c0-0.004,0-0.004,0-0.004c-0.063-0.143-0.121-0.274-0.171-0.385
	c0-0.005-0.003-0.013-0.003-0.017c-0.097-0.221-0.15-0.352-0.251-0.603c-0.031-0.078-0.064-0.166-0.104-0.271
	c-0.024-0.058-0.047-0.12-0.071-0.184c-0.03-0.074-0.057-0.151-0.083-0.224c-0.014-0.032-0.027-0.065-0.033-0.094
	c-0.007-0.013-0.011-0.023-0.018-0.038c-0.003-0.013-0.007-0.023-0.014-0.039l0,0c-0.009-0.032-0.022-0.066-0.037-0.106v-0.003
	c-0.009-0.015-0.013-0.029-0.016-0.045c-0.007-0.01-0.011-0.019-0.014-0.028c0-0.007-0.004-0.012-0.004-0.02
	c-0.079-0.221-0.177-0.511-0.254-0.75c-0.007-0.023-0.013-0.049-0.023-0.07c-0.014-0.048-0.026-0.091-0.04-0.136
	c-0.003-0.013-0.007-0.026-0.011-0.038c-0.009-0.022-0.014-0.041-0.02-0.062c-0.094-0.316-0.177-0.603-0.245-0.854
	c0-0.004,0-0.006,0-0.006c-0.013-0.044-0.022-0.083-0.033-0.122c-0.016-0.075-0.04-0.159-0.06-0.248
	c-0.053-0.229-0.124-0.522-0.191-0.85c-0.014-0.063-0.022-0.132-0.036-0.198c-0.007-0.018-0.007-0.031-0.011-0.046
	c-0.033-0.194-0.077-0.443-0.104-0.636c-0.013-0.086-0.026-0.177-0.04-0.275c0-0.022-0.004-0.042-0.01-0.062c0,0,0-0.004,0-0.006
	c-0.014-0.117-0.027-0.233-0.036-0.335c-0.024-0.193-0.048-0.447-0.058-0.65c-0.007-0.145-0.013-0.329-0.023-0.594
	c0-0.041,0-0.081,0-0.12c0-0.011,0-0.019,0-0.029c0-0.081,0-0.16,0-0.24c0.004-0.137,0.013-0.279,0.013-0.397
	c0-0.003,0-0.008,0-0.008c0-0.007,0-0.012,0-0.019c0,0,0-0.054-0.009-0.144c0-0.004,0-0.006,0-0.008
	c-0.004-0.01-0.004-0.018-0.004-0.025c0-0.017-0.003-0.03-0.007-0.045c0,0,0-0.003,0-0.005c-0.003-0.019-0.007-0.038-0.011-0.057
	c0-0.003,0-0.004,0-0.008c-0.003-0.019-0.009-0.044-0.014-0.069c-0.013-0.071-0.028-0.129-0.039-0.165v-0.005
	c-0.003-0.014-0.01-0.024-0.01-0.028l0,0v-0.002c-0.023-0.077-0.044-0.129-0.063-0.191c-0.026-0.057-0.048-0.108-0.074-0.161
	c-0.021-0.037-0.04-0.074-0.061-0.111c-0.004-0.005-0.006-0.014-0.011-0.017c0-0.005-0.006-0.007-0.006-0.011
	c-0.007-0.016-0.017-0.029-0.029-0.046l-0.004-0.007v-0.001V46.53c-0.007-0.014-0.017-0.026-0.027-0.04
	c-0.017-0.025-0.033-0.051-0.05-0.073l0,0c-0.01-0.011-0.017-0.02-0.022-0.029c-0.024-0.03-0.048-0.06-0.075-0.09
	c0-0.003-0.006-0.004-0.006-0.004c-0.003-0.007-0.007-0.01-0.007-0.014c-0.007-0.007-0.014-0.014-0.017-0.019
	c-0.006-0.007-0.015-0.014-0.021-0.021c-0.021-0.023-0.043-0.045-0.062-0.063c-0.004-0.004-0.004-0.007-0.004-0.007
	c-0.014-0.011-0.024-0.02-0.033-0.03c-0.007-0.007-0.014-0.011-0.021-0.018c-0.033-0.03-0.07-0.066-0.107-0.092
	c-0.003-0.002-0.01-0.006-0.014-0.012c-0.083-0.064-0.177-0.13-0.277-0.189c-0.018-0.01-0.037-0.021-0.06-0.033
	c-0.004,0-0.004,0-0.004-0.005l-8.416-0.153c-0.107,0.059-0.194,0.116-0.251,0.159c-0.011,0.008-0.07,0.048-0.151,0.117
	c-0.003,0.005-0.014,0.011-0.017,0.017c-0.004,0.004-0.013,0.01-0.017,0.015c-0.007,0.006-0.014,0.009-0.017,0.015
	c0,0,0,0.003-0.006,0.004c-0.035,0.033-0.071,0.068-0.108,0.109c-0.037,0.038-0.073,0.078-0.101,0.119
	c-0.007,0.006-0.01,0.011-0.014,0.017c-0.009,0.009-0.016,0.02-0.022,0.029c-0.018,0.027-0.037,0.05-0.051,0.073
	c-0.006,0.008-0.01,0.01-0.013,0.02c-0.021,0.026-0.037,0.053-0.054,0.078c-0.017,0.037-0.034,0.064-0.057,0.104
	c-0.04,0.077-0.07,0.143-0.088,0.188c0,0.006,0,0.013-0.003,0.015c-0.007,0.007-0.007,0.014-0.011,0.019l0,0
	c-0.029,0.079-0.053,0.146-0.066,0.197c-0.004,0.008-0.004,0.018-0.006,0.026c0,0.007-0.005,0.014-0.007,0.022
	c-0.018,0.058-0.024,0.098-0.033,0.145c0,0.003-0.004,0.007-0.004,0.01c0,0.012-0.003,0.02-0.007,0.032
	c-0.007,0.044-0.018,0.087-0.018,0.122v0.001c-0.009,0.04-0.009,0.07-0.009,0.074c0,0.003,0,0.007,0,0.01
	c0,0.007,0,0.012-0.004,0.016c-0.003,0.12-0.003,0.261-0.003,0.397c-0.004,0.081-0.011,0.161-0.014,0.242c0,0.008,0,0.02,0,0.027
	c-0.004,0.038-0.007,0.082-0.011,0.124c-0.022,0.264-0.037,0.448-0.053,0.59c-0.021,0.202-0.054,0.455-0.088,0.647
	c-0.009,0.059-0.02,0.111-0.029,0.164c-0.03,0.181-0.057,0.332-0.084,0.47c-0.037,0.19-0.083,0.396-0.151,0.672
	c0,0.013-0.002,0.027-0.009,0.041l0,0c-0.128,0.539-0.262,0.981-0.355,1.277c-0.074,0.239-0.164,0.512-0.271,0.814
	c-0.007,0.019-0.011,0.033-0.018,0.051c-0.007,0.016-0.014,0.033-0.016,0.048c-0.035,0.091-0.07,0.187-0.104,0.287
	c-0.011,0.022-0.021,0.045-0.028,0.068c0,0,0,0.003-0.003,0.006c-0.011,0.022-0.017,0.045-0.026,0.067c0,0.004,0,0.008-0.004,0.014
	c-0.007,0.021-0.016,0.04-0.022,0.063c-0.004,0.008-0.011,0.018-0.014,0.026c-0.004,0.017-0.011,0.032-0.018,0.048
	c-0.006,0.014-0.01,0.025-0.017,0.04c-0.003,0.015-0.01,0.024-0.014,0.037c-0.007,0.014-0.009,0.025-0.013,0.037
	c-0.007,0.015-0.014,0.028-0.021,0.044c-0.003,0.008-0.003,0.017-0.007,0.025c-0.006,0.016-0.013,0.033-0.023,0.054
	c0,0.001-0.003,0.005-0.003,0.005c-0.018,0.052-0.037,0.099-0.057,0.145v0.002c-0.047,0.121-0.094,0.229-0.128,0.312
	c-0.003,0.009-0.01,0.02-0.014,0.028c-0.002,0.005-0.002,0.011-0.006,0.018c-0.007,0.014-0.014,0.026-0.017,0.039
	c-0.037,0.089-0.084,0.199-0.132,0.303c-0.002,0.003-0.002,0.005-0.002,0.005c-0.007,0.023-0.018,0.043-0.026,0.065
	c-0.018,0.04-0.038,0.08-0.055,0.115c-0.029,0.068-0.06,0.129-0.084,0.186c-0.137,0.3-0.196,0.432-0.317,0.671
	c-0.003,0.011-0.007,0.021-0.017,0.034c-0.004,0.01-0.006,0.019-0.015,0.029l0,0c-0.079,0.164-0.189,0.38-0.304,0.6
	c-0.058,0.113-0.11,0.21-0.157,0.29c-0.06,0.115-0.127,0.236-0.198,0.355c-0.002,0.003-0.002,0.006-0.002,0.006
	c0,0.004-0.004,0.008-0.007,0.012c-0.03,0.054-0.055,0.103-0.081,0.15c-0.043,0.08-0.084,0.152-0.124,0.229
	c-0.144,0.265-0.244,0.459-0.314,0.59c-0.231,0.335-0.391,0.607-0.426,0.665c-0.062,0.107-0.144,0.252-0.203,0.365
	c-0.057,0.113-0.139,0.265-0.191,0.38c-0.053,0.11-0.121,0.261-0.17,0.376v0.002v0.002c0,0.002,0,0.003,0,0.003
	c-0.055,0.118-0.121,0.276-0.165,0.397v0.001c-0.09,0.234-0.188,0.544-0.261,0.78c-0.037,0.122-0.081,0.286-0.11,0.409
	c-0.03,0.124-0.07,0.291-0.094,0.418c0,0.001,0,0.001,0,0.001v0.006c-0.022,0.127-0.051,0.273-0.07,0.424
	c-0.022,0.14-0.043,0.279-0.064,0.401v0.005v0.002c-0.002,0.052-0.009,0.112-0.016,0.175c-0.011,0.085-0.018,0.173-0.02,0.246v0.005
	v0.002c0,0-0.014,0.173-0.024,0.412c0,0.001,0,0.004,0,0.006C136.636,63.55,136.636,63.684,136.636,63.8z"/>
<path fill="#FF9900" d="M142.012,46.932c-0.004,0.008-0.004,0.018-0.006,0.026c0,0.007-0.005,0.014-0.007,0.022
	c-0.018,0.058-0.024,0.098-0.033,0.145c0,0.003-0.004,0.007-0.004,0.01c0,0.012-0.003,0.02-0.007,0.032
	c-0.007,0.044-0.018,0.087-0.018,0.122v0.001c-0.009,0.04-0.009,0.07-0.009,0.074c0,0.003,0,0.007,0,0.01
	c0,0.007,0,0.012-0.004,0.016c-0.003,0.12-0.003,0.261-0.003,0.397c-0.004,0.081-0.011,0.161-0.014,0.242c0,0.008,0,0.02,0,0.027
	c-0.004,0.038-0.007,0.082-0.011,0.124c-0.022,0.264-0.037,0.448-0.053,0.59c-0.021,0.202-0.054,0.455-0.088,0.647
	c-0.009,0.059-0.02,0.111-0.029,0.164c-0.03,0.181-0.057,0.332-0.084,0.47c-0.037,0.19-0.083,0.396-0.151,0.672
	c0,0.013-0.002,0.027-0.009,0.041l0,0c-0.128,0.539-0.262,0.981-0.355,1.277c-0.074,0.239-0.164,0.512-0.271,0.814
	c-0.007,0.019-0.011,0.033-0.018,0.051c-0.007,0.016-0.014,0.033-0.016,0.048c-0.035,0.091-0.07,0.187-0.104,0.287
	c-0.011,0.022-0.021,0.045-0.028,0.068c0,0,0,0.003-0.003,0.006c-0.011,0.022-0.017,0.045-0.026,0.067c0,0.004,0,0.008-0.004,0.014
	c-0.007,0.021-0.016,0.04-0.022,0.063c-0.004,0.008-0.011,0.018-0.014,0.026c-0.004,0.017-0.011,0.032-0.018,0.048
	c-0.006,0.014-0.01,0.025-0.017,0.04c-0.003,0.015-0.01,0.024-0.014,0.037c-0.007,0.014-0.009,0.025-0.013,0.037
	c-0.007,0.015-0.014,0.028-0.021,0.044c-0.003,0.008-0.003,0.017-0.007,0.025c-0.006,0.016-0.013,0.033-0.023,0.054
	c0,0.001-0.003,0.005-0.003,0.005c-0.018,0.052-0.037,0.099-0.057,0.145v0.002c-0.047,0.121-0.094,0.229-0.128,0.312
	c-0.003,0.009-0.01,0.02-0.014,0.028c-0.002,0.005-0.002,0.011-0.006,0.018c-0.007,0.014-0.014,0.026-0.017,0.039
	c-0.037,0.089-0.084,0.199-0.132,0.303c-0.002,0.003-0.002,0.005-0.002,0.005c-0.007,0.023-0.018,0.043-0.026,0.065
	c-0.018,0.04-0.038,0.08-0.055,0.115c-0.029,0.068-0.06,0.129-0.084,0.186c-0.137,0.3-0.196,0.432-0.317,0.671
	c-0.003,0.011-0.007,0.021-0.017,0.034c-0.004,0.01-0.006,0.019-0.015,0.029l0,0c-0.079,0.164-0.189,0.38-0.304,0.6
	c-0.058,0.113-0.11,0.21-0.157,0.29c-0.06,0.115-0.127,0.236-0.198,0.355c-0.002,0.003-0.002,0.006-0.002,0.006
	c0,0.004-0.004,0.008-0.007,0.012c-0.03,0.054-0.055,0.103-0.081,0.15c-0.043,0.08-0.084,0.152-0.124,0.229
	c-0.144,0.265-0.244,0.459-0.314,0.59c-0.231,0.335-0.391,0.607-0.426,0.665c-0.062,0.107-0.144,0.252-0.203,0.365
	c-0.057,0.113-0.139,0.265-0.191,0.38c-0.053,0.11-0.121,0.261-0.17,0.376v0.002v0.002c0,0.002,0,0.003,0,0.003
	c-0.055,0.118-0.121,0.276-0.165,0.397v0.001c-0.09,0.234-0.188,0.544-0.261,0.78c-0.037,0.122-0.081,0.286-0.11,0.409
	c-0.03,0.124-0.07,0.291-0.094,0.418c0,0.001,0,0.001,0,0.001v0.006c-0.022,0.127-0.051,0.273-0.07,0.424
	c-0.022,0.14-0.043,0.279-0.064,0.401v0.005v0.002c-0.002,0.052-0.009,0.112-0.016,0.175c-0.011,0.085-0.018,0.173-0.02,0.246v0.005
	v0.002c0,0-0.014,0.173-0.024,0.412c0,0.001,0,0.004,0,0.006c-0.003,0.105-0.003,0.239-0.003,0.355c0,0.005,0,0.011,0,0.013
	c0,0.017,0,0.027,0,0.04s0,0.022,0,0.035c0,0.006,0,0.013,0,0.02c0,0.097,0.003,0.207,0.007,0.312c0,0.037,0.003,0.071,0.01,0.104
	c0,0.043,0.004,0.087,0.006,0.132c0.021,0.235,0.047,0.51,0.075,0.726c0,0.005,0,0.011,0.002,0.015
	c0.005,0.042,0.018,0.134,0.044,0.28c0,0.001,0,0.003,0,0.005c0,0.018,0.007,0.039,0.01,0.059c0.004,0.01,0.004,0.021,0.007,0.032
	c0,0.007,0,0.014,0.004,0.021c0.044,0.252,0.097,0.469,0.097,0.473c0.058,0.256,0.154,0.592,0.231,0.843
	c0.026,0.085,0.06,0.183,0.097,0.279c0.026,0.084,0.058,0.165,0.084,0.239c0.007,0.016,0.016,0.032,0.02,0.049
	c0.014,0.032,0.027,0.065,0.038,0.096c0.109,0.279,0.267,0.619,0.425,0.924c0.033,0.066,0.069,0.13,0.1,0.19
	c0.014,0.019,0.024,0.041,0.033,0.061c0.014,0.022,0.026,0.051,0.044,0.073c0.178,0.316,0.438,0.718,0.666,1.027
	c0.141,0.199,0.342,0.444,0.5,0.619c0.072,0.084,0.156,0.173,0.243,0.265c0.107,0.12,0.229,0.24,0.341,0.355
	c0.011,0.009,0.021,0.019,0.031,0.028c0.265,0.274,0.665,0.597,0.972,0.828c0.277,0.21,0.659,0.471,0.959,0.639
	c0.008,0.005,0.015,0.008,0.018,0.01c0.007,0.003,0.013,0.009,0.02,0.01c0.11,0.069,0.258,0.148,0.389,0.214
	c0.01,0.007,0.023,0.015,0.034,0.022c0.01,0.002,0.014,0.006,0.022,0.01c0.004,0,0.007,0.002,0.011,0.005h0.003
	c0.011,0.006,0.02,0.014,0.03,0.018c0.007,0.003,0.018,0.007,0.02,0.012c0.186,0.092,0.412,0.203,0.596,0.275
	c0.021,0.012,0.048,0.022,0.074,0.031c0.204,0.086,0.412,0.165,0.622,0.238c0.048,0.018,0.095,0.032,0.139,0.049
	c0.133,0.043,0.265,0.086,0.384,0.117c0.004,0,0.007,0.002,0.011,0.003c0.113,0.034,0.214,0.062,0.294,0.081
	c0.011,0.001,0.017,0.003,0.023,0.005c0.011,0.003,0.018,0.005,0.027,0.007c0.067,0.018,0.171,0.041,0.274,0.065
	c0.007,0,0.01,0.001,0.01,0.001c0.013,0.002,0.02,0.006,0.027,0.007c0.106,0.024,0.214,0.045,0.285,0.058l0,0
	c0.2,0.038,0.384,0.066,0.549,0.086c0.097,0.012,0.207,0.025,0.293,0.033c0,0,0.004,0,0.007,0.003
	c0.051,0.003,0.095,0.008,0.135,0.012c0.134,0.01,0.16,0.011,0.288,0.02l0,0c0,0,0.051,0.003,0.13,0.009h0.004
	c0.017,0,0.033,0,0.05,0c0.007,0,0.018,0,0.023,0.001l1.098-28.26l-4.512-0.083c-0.107,0.059-0.194,0.116-0.251,0.159
	c-0.011,0.008-0.07,0.048-0.151,0.117c-0.003,0.005-0.014,0.011-0.017,0.017c-0.004,0.004-0.013,0.01-0.017,0.015
	c-0.007,0.006-0.014,0.009-0.017,0.015c0,0,0,0.003-0.006,0.004c-0.035,0.033-0.071,0.068-0.108,0.109
	c-0.037,0.038-0.073,0.078-0.101,0.119c-0.007,0.006-0.01,0.011-0.014,0.017c-0.009,0.009-0.016,0.02-0.022,0.029
	c-0.018,0.027-0.037,0.05-0.051,0.073c-0.006,0.008-0.01,0.01-0.013,0.02c-0.021,0.026-0.037,0.053-0.054,0.078
	c-0.017,0.037-0.034,0.064-0.057,0.104c-0.04,0.077-0.07,0.143-0.088,0.188c0,0.006,0,0.013-0.003,0.015
	c-0.007,0.007-0.007,0.014-0.011,0.019l0,0C142.049,46.813,142.025,46.881,142.012,46.932z"/>
<path stroke="#FFFFFF" stroke-width="0.05" d="M143.676,45.411l7.027,0.13c0.642,0.011,1.168-0.414,1.177-0.951
	c0.011-0.536-0.501-0.981-1.14-0.996l-7.031-0.129c-0.639-0.009-1.165,0.416-1.175,0.953
	C142.523,44.955,143.037,45.399,143.676,45.411z"/>
<path stroke="#FFFFFF" stroke-width="0.05" d="M143.712,43.367l7.028,0.127c0.639,0.013,1.168-0.413,1.177-0.95
	c0.011-0.535-0.502-0.983-1.142-0.992l-7.026-0.132c-0.64-0.011-1.168,0.416-1.179,0.953
	C142.563,42.91,143.07,43.355,143.712,43.367z"/>
<path stroke="#FFFFFF" stroke-width="0.05" d="M148.529,39.845c-0.378-0.373-0.817-0.589-1.289-0.597
	c-0.491-0.011-0.957,0.209-1.362,0.603c-0.803,0.243-1.517,0.701-2.071,1.311l6.919,0.123
	C150.16,40.613,149.396,40.105,148.529,39.845z"/>
<g>
	<path fill="#FFFFFF" d="M143.05,61.168c-0.03,0-0.063-0.001-0.094-0.005l-2.344-0.164l0.011-0.111l2.344,0.165
		c0.381,0.029,0.763-0.131,1.061-0.447c0.301-0.318,0.484-0.757,0.521-1.237l0.573-8.1l0.11,0.008l-0.573,8.099
		c-0.035,0.507-0.233,0.971-0.551,1.308C143.809,60.998,143.438,61.168,143.05,61.168z"/>
</g>
<g>
	<path opacity="0.75" fill="#FFFFFF" d="M138.821,60.673c0.048-0.694,0.649-1.221,1.346-1.171c0.699,0.05,1.222,0.652,1.173,1.349
		c-0.048,0.696-0.65,1.22-1.347,1.172C139.294,61.973,138.771,61.369,138.821,60.673z"/>
	<g opacity="0.75">
		<path fill="#FFFFFF" d="M140.08,62.463c-0.036,0-0.08-0.002-0.117-0.006c-0.455-0.031-0.867-0.239-1.168-0.58
			c-0.294-0.344-0.441-0.782-0.408-1.233c0.066-0.928,0.87-1.641,1.812-1.578c0.454,0.032,0.866,0.238,1.168,0.581
			c0.298,0.344,0.441,0.783,0.412,1.236C141.715,61.768,140.968,62.463,140.08,62.463z M140.08,59.117
			c-0.856,0-1.579,0.672-1.641,1.528c-0.029,0.438,0.11,0.863,0.398,1.193c0.289,0.333,0.69,0.533,1.129,0.562
			c0.903,0.066,1.69-0.629,1.754-1.524c0.029-0.438-0.11-0.859-0.398-1.192c-0.288-0.332-0.686-0.531-1.128-0.562
			C140.156,59.12,140.121,59.117,140.08,59.117z"/>
	</g>
</g>
<g>
	<path opacity="0.75" fill="#FFFFFF" d="M144.018,51.059c0.04-0.555,0.519-0.971,1.074-0.932s0.971,0.52,0.93,1.072
		c-0.035,0.556-0.514,0.973-1.071,0.934C144.396,52.095,143.98,51.613,144.018,51.059z"/>
	<g opacity="0.75">
		<path fill="#FFFFFF" d="M145.021,52.484c-0.029,0-0.064-0.002-0.098-0.004c-0.357-0.024-0.686-0.19-0.926-0.463
			c-0.235-0.272-0.353-0.62-0.326-0.98c0.047-0.707,0.64-1.26,1.35-1.26c0.03,0,0.061,0.001,0.097,0.004
			c0.744,0.052,1.307,0.7,1.252,1.444C146.321,51.933,145.73,52.484,145.021,52.484z M145.021,49.819
			c-0.687,0-1.259,0.536-1.306,1.219c-0.023,0.35,0.091,0.688,0.317,0.952c0.231,0.264,0.547,0.421,0.895,0.447
			c0.033,0,0.064,0.002,0.094,0.002c0.687,0,1.258-0.536,1.306-1.217c0.05-0.72-0.493-1.348-1.216-1.397
			C145.082,49.822,145.052,49.819,145.021,49.819z"/>
	</g>
</g>
<g opacity="0.8">
	<path fill="#FFFFFF" d="M152.902,66.572l-2.352-0.065c-0.44-0.012-0.842-0.231-1.144-0.615c-0.291-0.378-0.445-0.872-0.429-1.391
		l0.576-13.285l0.227,0.01l-0.575,13.284c-0.013,0.465,0.121,0.907,0.382,1.242c0.258,0.331,0.599,0.517,0.972,0.526l2.346,0.067
		L152.902,66.572z"/>
</g>
<g>
	<circle opacity="0.75" fill="#FFFFFF" cx="153.456" cy="66.331" r="1.264"/>
	<g opacity="0.75">
		<path fill="#FFFFFF" d="M153.454,68.03L153.454,68.03c-0.014,0-0.029-0.003-0.047-0.003c-0.454-0.011-0.877-0.198-1.188-0.53
			c-0.311-0.33-0.479-0.762-0.462-1.215c0.023-0.927,0.771-1.652,1.694-1.652c0.016,0,0.037,0,0.051,0.002
			c0.937,0.026,1.677,0.811,1.649,1.747C155.128,67.305,154.382,68.03,153.454,68.03z M153.451,64.688
			c-0.895,0-1.617,0.7-1.64,1.596c-0.015,0.44,0.146,0.857,0.451,1.176c0.301,0.32,0.706,0.502,1.145,0.514c0.018,0,0.033,0,0.047,0
			c0.896,0,1.617-0.7,1.644-1.598c0.024-0.904-0.692-1.661-1.596-1.688C153.484,64.688,153.467,64.688,153.451,64.688z"/>
	</g>
</g>
<g>
	<path opacity="0.75" fill="#FFFFFF" d="M150.84,51.123c0.017-0.556-0.419-1.02-0.978-1.034c-0.553-0.015-1.018,0.425-1.031,0.979
		c-0.017,0.553,0.422,1.017,0.978,1.034C150.363,52.114,150.826,51.678,150.84,51.123z"/>
	<g opacity="0.75">
		<path fill="#FFFFFF" d="M149.835,52.448L149.835,52.448c-0.014,0-0.026,0-0.04,0c-0.357-0.011-0.696-0.161-0.943-0.423
			c-0.247-0.265-0.382-0.607-0.372-0.969c0.023-0.737,0.616-1.315,1.355-1.315c0.015,0,0.027,0.001,0.041,0.001
			c0.746,0.021,1.332,0.645,1.312,1.392C151.168,51.87,150.575,52.448,149.835,52.448z M149.835,49.785
			c-0.713,0-1.285,0.558-1.308,1.271c-0.007,0.351,0.116,0.685,0.357,0.938c0.237,0.255,0.566,0.399,0.914,0.409
			c0.014,0.001,0.022,0.001,0.036,0.001c0.714,0,1.289-0.56,1.309-1.271c0.021-0.724-0.551-1.325-1.271-1.347
			C149.862,49.786,149.85,49.785,149.835,49.785z"/>
	</g>
</g>
<path fill="none" stroke="#FFFFFF" stroke-width="0.2912" d="M151.878,9.207c0,2.451-1.906,4.438-4.254,4.438
	c-2.354,0-4.26-1.987-4.26-4.438c0-2.45,1.906-4.436,4.26-4.436C149.972,4.771,151.878,6.757,151.878,9.207z"/>
<g>
	<ellipse fill="none" stroke="#FFFFFF" stroke-width="0.2912" cx="8.728" cy="104.035" rx="4.258" ry="4.438"/>
	<ellipse fill="#FFFFFF" cx="8.729" cy="104.035" rx="1.714" ry="1.786"/>
</g>
<path fill="#FFFFFF" d="M149.334,9.207c0,0.986-0.765,1.787-1.71,1.787c-0.951,0-1.72-0.8-1.72-1.787
	c0-0.987,0.769-1.785,1.72-1.785C148.569,7.422,149.334,8.22,149.334,9.207z"/>
<path fill="#FFFFFF" d="M9.208,99.6H8.249V8.462c0-3.026,2.364-5.49,5.269-5.49h1.65c2.904,0,5.267,2.464,5.267,5.49v36.058
	c0,2.478,1.935,4.491,4.312,4.491h3.313c2.377,0,4.31-2.014,4.31-4.491V14.452c0-3.028,2.364-5.49,5.269-5.49H143.31v1H37.638
	c-2.375,0-4.311,2.013-4.311,4.491v30.069c0,3.027-2.363,5.49-5.268,5.49h-3.313c-2.905,0-5.269-2.463-5.269-5.49V8.462
	c0-2.478-1.934-4.491-4.31-4.491h-1.65c-2.376,0-4.31,2.013-4.31,4.491V99.6z"/>
<rect x="146.949" y="13.875" fill="#FFFFFF" width="0.958" height="25.373"/>
</svg>
